<?xml version="1.0" standalone="no"?>
<!DOCTYPE svg PUBLIC "-//W3C//DTD SVG 20010904//EN"
 "http://www.w3.org/TR/2001/REC-SVG-20010904/DTD/svg10.dtd">
<svg version="1.0" xmlns="http://www.w3.org/2000/svg"
 width="200px" height="200px" viewBox="0 0 300.000000 254.000000"
 preserveAspectRatio="xMidYMid meet">
<metadata>
Created by potrace 1.10, written by Peter Selinger 2001-2011
</metadata>
<g transform="translate(0.000000,254.000000) scale(0.100000,-0.100000)"
fill="#ffffff" stroke="none">
<path d="M1488 2423 c-21 -9 -38 -20 -38 -24 0 -5 -7 -9 -17 -9 -9 0 -30 -10
-47 -23 -17 -13 -46 -29 -63 -36 -18 -8 -33 -17 -33 -21 0 -4 -38 -26 -83 -49
-46 -23 -97 -52 -114 -64 l-29 -22 2 -248 c2 -137 6 -257 9 -267 3 -10 19 -25
35 -32 17 -7 30 -16 30 -20 0 -5 7 -8 15 -8 8 0 15 -4 15 -10 0 -5 11 -10 24
-10 13 0 29 -7 36 -15 6 -8 22 -17 33 -21 12 -4 47 -23 77 -42 85 -55 180
-102 200 -99 10 2 24 7 32 13 7 6 36 21 63 35 28 13 52 27 55 30 3 3 20 14 38
23 28 14 36 15 50 4 15 -12 16 -11 3 5 -8 9 -12 19 -10 20 14 8 158 83 177 92
51 23 39 64 -28 95 -41 19 -52 21 -65 10 -8 -7 -15 -9 -15 -5 0 5 -8 2 -17 -6
-10 -8 -31 -21 -48 -29 -16 -8 -32 -18 -35 -22 -3 -3 -35 -22 -72 -42 -62 -33
-66 -34 -71 -15 -3 10 -1 19 4 19 6 0 9 41 7 96 -3 108 -4 106 85 147 26 12
47 25 47 29 0 5 5 8 11 8 22 0 38 35 39 82 0 56 -21 84 -51 68 -11 -6 -24 -8
-29 -5 -5 3 -7 0 -4 -8 4 -11 -6 -19 -33 -28 -21 -7 -41 -12 -45 -11 -5 1 -8
-5 -8 -13 0 -8 -3 -14 -7 -13 -5 2 -25 -7 -45 -20 l-37 -23 -48 27 c-26 15
-56 34 -67 43 -10 9 -21 16 -25 15 -3 0 -14 1 -24 4 -15 4 -15 7 -5 21 11 14
11 14 -4 3 -11 -9 -18 -10 -23 -2 -8 14 -52 13 -61 -2 -5 -8 -2 -9 10 -5 11 5
56 -15 131 -58 l114 -65 68 39 c142 80 165 91 171 87 4 -2 5 -28 4 -58 l-4
-53 -94 -54 -94 -53 0 -134 c0 -74 3 -134 6 -134 3 0 18 8 32 18 50 34 250
142 264 142 7 0 24 -9 38 -20 14 -11 31 -20 38 -20 14 0 17 -30 2 -30 -6 0
-57 -26 -113 -59 -56 -32 -150 -86 -209 -119 l-106 -61 -154 88 c-84 48 -186
105 -226 127 l-72 39 2 255 3 255 165 93 c91 51 164 97 162 103 -1 6 2 8 8 4
11 -7 110 45 110 58 0 4 -1 7 -2 6 -2 -1 -20 -8 -40 -16z"/>
<path d="M1546 2421 c5 -5 86 -52 179 -104 94 -52 189 -106 213 -120 l44 -24
-53 -31 c-51 -29 -52 -30 -83 -12 -17 10 -80 46 -141 80 -60 34 -124 71 -141
81 l-31 19 -155 -89 c-86 -48 -163 -91 -172 -94 -14 -6 -16 -31 -16 -205 l0
-198 108 -61 c59 -33 124 -71 145 -83 l37 -22 0 135 0 135 -67 40 c-97 57
-133 74 -133 63 0 -10 65 -51 81 -51 16 0 89 -57 81 -64 -3 -4 0 -5 8 -1 13 4
15 -10 15 -85 0 -49 -3 -90 -6 -90 -3 0 -4 -11 -1 -25 l4 -25 -33 17 c-19 10
-37 23 -41 28 -4 6 -8 7 -8 2 0 -8 -81 42 -91 56 -3 5 -9 8 -13 8 -20 -3 -26
0 -21 9 3 6 -3 10 -13 10 -38 0 -42 20 -41 198 2 154 4 173 21 192 11 11 23
18 28 15 5 -3 15 3 22 12 7 10 27 25 43 33 17 8 42 22 56 32 14 10 29 15 33
11 3 -3 6 -1 6 6 0 8 8 11 20 8 11 -3 18 -1 14 4 -3 5 0 9 6 9 6 0 26 11 44
25 l32 24 50 -26 c27 -14 66 -37 87 -50 20 -13 37 -20 37 -16 0 5 5 0 11 -10
6 -9 14 -15 20 -12 5 4 12 -1 15 -9 3 -9 10 -13 15 -10 5 3 9 1 9 -5 0 -6 12
-14 28 -17 15 -4 36 -12 47 -18 20 -11 94 -18 77 -7 -5 3 8 17 29 31 42 26 49
44 22 54 -35 13 -73 37 -73 47 0 5 -8 9 -18 9 -10 0 -27 8 -38 18 -11 10 -32
22 -48 26 -18 4 -26 12 -22 21 3 9 0 12 -8 9 -8 -3 -17 -1 -21 5 -3 6 -13 11
-21 11 -9 0 -35 13 -58 30 -24 16 -46 26 -50 23 -3 -4 -6 -1 -6 5 0 7 -7 12
-15 12 -8 0 -15 5 -15 10 0 6 -10 10 -22 10 -13 0 -18 -4 -12 -9z"/>
<path d="M1408 2053 c7 -3 16 -2 19 1 4 3 -2 6 -13 5 -11 0 -14 -3 -6 -6z"/>
<path d="M1256 2022 c6 -4 10 -24 9 -44 -1 -29 1 -35 11 -27 7 5 11 18 9 27
-2 9 -4 25 -4 35 -1 9 -9 17 -18 17 -11 0 -14 -3 -7 -8z"/>
<path d="M561 1189 c-11 -11 -28 -15 -44 -12 -14 3 -40 -2 -58 -11 -17 -9 -35
-13 -40 -11 -4 3 -11 1 -14 -5 -12 -20 -84 -60 -107 -60 -13 0 -43 14 -68 30
-25 16 -51 30 -58 30 -7 0 -10 5 -6 12 4 6 3 9 -2 6 -15 -9 -56 11 -49 23 4 6
-7 3 -24 -5 -26 -14 -31 -22 -31 -54 1 -30 28 -106 30 -79 0 5 12 0 27 -11 16
-11 50 -30 76 -42 l49 -23 -4 -49 c-6 -63 19 -108 59 -108 53 0 61 14 62 108
1 37 5 52 15 52 7 0 19 7 27 16 7 8 21 13 30 11 10 -3 17 -1 16 5 -2 11 81 60
86 50 8 -13 1 -177 -7 -191 -7 -10 -5 -12 4 -6 10 6 12 4 7 -7 -11 -31 38 -39
252 -39 168 0 208 3 215 14 8 12 14 12 40 -4 23 -14 45 -17 86 -14 30 2 121 4
201 5 l147 0 15 33 c8 17 15 53 14 80 -1 26 -2 47 -1 47 10 0 72 -38 80 -48 6
-8 16 -12 22 -8 7 4 12 2 12 -3 0 -6 6 -11 14 -11 8 0 21 -6 28 -13 7 -7 28
-19 47 -27 18 -7 47 -25 64 -39 17 -14 28 -19 23 -11 -4 8 0 6 9 -5 9 -11 17
-19 18 -17 4 7 43 -12 55 -27 8 -9 11 -11 8 -5 -3 7 11 3 31 -7 25 -13 40 -16
47 -9 23 23 32 9 30 -49 -1 -32 2 -64 5 -70 10 -16 157 -24 198 -10 25 8 33
16 33 35 0 25 1 25 82 22 59 -2 83 -7 86 -17 3 -9 0 -11 -9 -6 -8 5 -5 -2 5
-14 11 -12 29 -21 40 -19 19 3 21 11 24 90 3 87 3 87 -24 94 -18 5 -22 9 -13
15 7 4 16 6 20 3 4 -2 10 3 13 12 6 15 8 15 24 0 10 -9 31 -16 46 -16 22 0 30
7 42 36 8 20 13 43 9 51 -13 35 12 41 171 42 102 1 162 6 175 14 17 10 19 24
19 113 0 95 -2 103 -22 116 -15 9 -36 12 -58 9 -19 -4 -110 -4 -202 -1 -129 4
-169 2 -173 -7 -2 -7 -12 -13 -20 -13 -9 0 -13 4 -10 10 3 6 -1 7 -9 4 -9 -3
-16 -2 -16 2 0 5 -95 8 -211 7 -158 -1 -214 -5 -226 -15 -12 -10 -17 -10 -20
-1 -3 8 -64 12 -221 13 -119 0 -218 3 -220 5 -2 2 -11 -3 -19 -11 -10 -10 -19
-12 -27 -5 -15 12 -436 20 -436 8 0 -5 -5 -5 -10 -2 -6 4 -10 3 -9 -2 4 -22
-3 -25 -20 -9 -16 15 -47 17 -226 19 -180 2 -209 0 -224 -14z m919 -50 l0 -29
-185 0 -185 0 0 -35 0 -35 185 0 185 0 0 -95 0 -95 -220 0 -220 0 0 30 0 30
185 0 185 0 0 35 0 35 -185 0 -185 0 0 95 0 95 213 2 c116 2 215 2 220 0 4 -2
7 -16 7 -33z m-1252 -48 l72 -42 103 59 c56 33 105 58 110 55 4 -2 7 -19 7
-38 0 -31 -5 -35 -95 -86 l-95 -52 0 -69 0 -68 -30 0 -30 0 0 69 0 70 -95 51
c-90 49 -95 53 -95 84 0 44 8 49 44 27 17 -10 64 -37 104 -60z m772 49 l0 -30
-185 0 -185 0 0 -35 0 -35 185 0 185 0 0 -30 0 -30 -185 0 -185 0 0 -35 0 -35
185 0 185 0 0 -30 0 -30 -220 0 -220 0 0 160 0 160 220 0 220 0 0 -30z m960 0
l0 -30 -186 0 -185 0 3 -32 c3 -30 13 -38 183 -133 179 -101 180 -102 183
-138 2 -23 -1 -37 -8 -37 -7 0 -106 53 -221 118 l-209 117 0 83 0 82 220 0
220 0 0 -30z m480 -130 l0 -160 -35 0 -35 0 0 65 0 65 -150 0 -150 0 0 -65 0
-65 -35 0 -35 0 0 160 0 160 220 0 220 0 0 -160z m480 65 l0 -95 -185 0 -185
0 0 -65 0 -65 -35 0 -35 0 0 160 0 160 220 0 220 0 0 -95z m-1902 5 c1 -27 -1
-29 -20 -19 -19 10 -19 11 -1 29 10 10 18 19 19 19 1 1 1 -12 2 -29z m478 -5
c1 -15 -2 -22 -9 -18 -5 3 -24 10 -41 14 l-31 8 32 -2 c20 -2 34 2 37 10 8 19
11 16 12 -12z m477 -93 c2 -70 0 -109 -7 -105 -6 4 -7 -1 -2 -13 7 -18 6 -18
-13 1 -29 28 -41 38 -81 58 -19 10 -65 33 -102 52 -38 19 -68 39 -68 45 0 6
-4 8 -10 5 -5 -3 -10 -1 -10 4 0 6 -6 11 -14 11 -8 0 -24 9 -37 20 l-24 19
172 1 c111 0 174 4 178 11 13 19 15 3 18 -109z m-1250 91 c-13 -2 -33 -2 -45
0 -13 2 -3 4 22 4 25 0 35 -2 23 -4z m684 1 c-3 -3 -12 -4 -19 -1 -8 3 -5 6 6
6 11 1 17 -2 13 -5z m-371 -109 c4 -10 21 -15 48 -16 l41 -2 -43 -7 c-24 -3
-47 -11 -50 -16 -4 -6 -21 -2 -42 8 -27 14 -30 18 -14 18 12 0 24 7 28 15 3 8
10 15 16 15 6 0 13 -7 16 -15z m-288 -22 c-10 -2 -28 -2 -40 0 -13 2 -5 4 17
4 22 1 32 -1 23 -4z m125 0 c-13 -2 -35 -2 -50 0 -16 2 -5 4 22 4 28 0 40 -2
28 -4z m74 1 c-3 -3 -12 -4 -19 -1 -8 3 -5 6 6 6 11 1 17 -2 13 -5z m296 -1
c-7 -2 -19 -2 -25 0 -7 3 -2 5 12 5 14 0 19 -2 13 -5z m1107 -42 c0 -41 4 -53
25 -70 19 -14 25 -27 22 -46 -4 -32 -26 -48 -44 -33 -9 7 -13 7 -13 -1 0 -6
-7 -11 -15 -11 -8 0 -15 5 -15 11 0 5 -5 7 -10 4 -6 -3 -14 4 -19 17 -11 29
-41 57 -41 38 0 -8 -12 -10 -37 -6 -21 3 -67 7 -102 8 -48 2 -58 4 -42 12 24
10 29 25 33 84 l2 42 128 0 128 0 0 -49z m-348 -95 c-3 -15 8 -17 100 -15
l103 2 5 -78 c3 -42 3 -78 0 -80 -13 -7 -187 -4 -199 4 -30 19 2 31 85 31 68
0 84 3 84 15 0 12 -17 15 -90 15 -73 0 -90 3 -90 15 0 12 17 15 90 15 73 0 90
3 90 15 0 12 -16 15 -87 15 -86 0 -88 1 -100 27 -7 15 -13 31 -13 36 0 5 6 7
13 4 6 -2 11 -12 9 -21z m268 -46 l0 -30 70 0 70 0 0 30 c0 20 5 30 15 30 12
0 15 -14 15 -70 0 -38 1 -73 2 -77 1 -5 -6 -9 -15 -11 -13 -3 -17 4 -17 32 l0
36 -90 0 -89 0 1 45 c0 37 4 45 19 45 14 0 19 -7 19 -30z"/>
<path d="M2070 1075 l0 -35 150 0 150 0 0 35 0 35 -150 0 -150 0 0 -35z m113
-2 c-7 -2 -21 -2 -30 0 -10 3 -4 5 12 5 17 0 24 -2 18 -5z"/>
<path d="M2550 1075 l0 -35 150 0 150 0 0 35 0 35 -150 0 -150 0 0 -35z m83
-2 c-7 -2 -19 -2 -25 0 -7 3 -2 5 12 5 14 0 19 -2 13 -5z"/>
<path d="M1240 258 c-34 -14 -64 -18 -141 -19 -36 0 -71 -4 -78 -9 -7 -4 -26
-3 -41 3 -21 8 -36 8 -55 -1 -21 -10 -31 -9 -54 2 -24 13 -31 13 -48 1 -11 -8
-23 -11 -27 -8 -3 3 -6 -1 -6 -11 0 -9 -5 -14 -10 -11 -6 4 -9 3 -8 -2 1 -4
-2 -18 -6 -31 -5 -15 -3 -29 6 -39 9 -12 9 -15 1 -9 -9 5 -11 2 -7 -8 3 -9 13
-16 21 -16 8 0 11 -4 8 -10 -3 -5 2 -10 12 -11 10 0 29 -2 42 -5 13 -2 31 1
39 8 9 7 13 8 9 2 -3 -6 0 -11 8 -11 8 0 11 5 8 11 -3 6 2 4 11 -5 17 -16 76
-15 76 1 0 5 14 3 31 -3 25 -10 35 -9 59 5 23 13 33 14 43 5 17 -16 37 -19 37
-6 0 8 4 9 13 0 8 -6 16 -9 18 -6 12 12 73 15 80 4 5 -9 14 -10 30 -3 16 7 32
7 51 0 23 -8 32 -7 55 10 52 39 53 101 3 141 -23 19 -74 15 -98 -7 -24 -22
-40 -27 -24 -7 9 10 7 19 -4 35 -17 25 -19 25 -54 10z m40 -24 c0 -7 -5 -14
-11 -16 -7 -2 0 -25 17 -61 15 -31 24 -60 20 -64 -4 -4 -12 0 -17 10 -13 22
-58 22 -75 0 -27 -38 -24 -2 5 56 36 69 36 72 16 65 -8 -4 -15 -2 -15 4 0 12
14 18 41 18 10 0 19 -6 19 -12z m-399 -34 c18 -14 20 -19 9 -20 -9 0 -21 5
-27 11 -8 8 -17 8 -33 -1 -30 -16 -24 -64 9 -68 13 -2 28 1 34 7 8 8 5 11 -11
11 -12 0 -22 5 -22 10 0 6 14 10 30 10 23 0 30 -5 30 -19 0 -38 -62 -59 -95
-31 -23 19 -19 76 7 94 29 21 41 20 69 -4z m114 10 c4 -6 -7 -10 -24 -10 -21
0 -31 -5 -31 -15 0 -9 9 -15 25 -15 14 0 25 -6 25 -14 0 -9 -8 -12 -25 -8 -18
3 -25 0 -25 -12 0 -11 9 -16 31 -16 17 0 29 -5 27 -11 -2 -6 -7 -10 -11 -10
-4 1 -20 1 -37 1 -30 0 -30 0 -30 60 l0 60 34 0 c19 0 38 -4 41 -10z m95 -5
c17 -20 5 -32 -15 -15 -16 13 -50 6 -41 -9 3 -4 19 -11 35 -14 47 -10 50 -57
3 -69 -26 -7 -62 9 -62 27 0 17 16 20 25 5 9 -14 47 -12 43 2 -3 7 -15 15 -28
18 -13 3 -28 13 -34 23 -21 35 48 64 74 32z m110 -1 c0 -10 -6 -14 -15 -10
-12 4 -15 -5 -15 -50 0 -40 -3 -54 -12 -51 -8 2 -13 23 -13 53 0 41 -3 49 -18
46 -10 -2 -17 3 -17 13 0 11 11 15 45 15 35 0 45 -4 45 -16z m210 -2 c25 -20
30 -63 10 -87 -19 -23 -76 -19 -94 7 -21 29 -20 40 5 72 24 31 48 33 79 8z"/>
<path d="M1247 173 c-12 -12 -7 -33 8 -33 17 0 19 9 7 28 -5 7 -11 9 -15 5z"/>
<path d="M1350 186 c-6 -8 -10 -25 -8 -38 2 -18 9 -23 33 -23 24 0 31 5 33 24
3 15 -3 30 -14 38 -23 17 -29 16 -44 -1z m34 -37 c-3 -5 -10 -7 -15 -3 -5 3
-7 10 -3 15 3 5 10 7 15 3 5 -3 7 -10 3 -15z"/>
<path d="M2278 238 c-16 -5 -28 -14 -28 -19 0 -5 -10 -3 -22 4 -28 17 -150 16
-156 -1 -2 -7 -8 -12 -13 -12 -6 0 -8 4 -5 9 9 14 -32 21 -121 21 -46 0 -85
-5 -88 -10 -4 -7 -12 -7 -18 -2 -7 4 -19 8 -27 8 -15 -1 -69 -73 -70 -93 0 -7
-6 -13 -14 -13 -11 0 -14 11 -11 44 6 57 -10 71 -68 62 -48 -8 -49 -8 -99 0
-51 8 -64 -8 -70 -84 -2 -34 -1 -57 4 -50 5 9 8 8 8 -4 0 -27 84 -38 101 -14
4 4 16 3 27 -3 60 -32 120 -1 157 80 15 34 30 57 35 52 4 -4 19 -34 33 -66 19
-41 22 -57 13 -57 -8 0 -16 7 -20 15 -7 19 -55 19 -62 0 -4 -8 -12 -15 -20
-15 -8 0 -14 -4 -14 -10 0 -14 12 -12 38 6 20 14 26 14 45 2 18 -11 79 -17 90
-8 9 7 38 7 43 -1 9 -15 46 -10 66 8 10 9 18 11 18 6 0 -6 11 -13 25 -15 14
-3 25 -1 25 4 0 5 4 6 10 3 5 -3 7 0 4 9 -3 9 0 14 8 12 20 -3 39 -16 34 -24
-4 -6 22 -7 82 -4 13 1 20 7 17 12 -3 5 -1 10 5 10 6 0 13 -6 16 -14 8 -21 81
-14 99 10 13 17 16 109 4 117 -39 28 -56 33 -81 25z m-703 -43 c14 -13 25 -31
25 -40 0 -27 -42 -61 -74 -60 -28 2 -28 3 -28 58 0 31 1 59 1 62 2 15 55 1 76
-20z m115 11 c0 -9 -8 -12 -25 -8 -18 3 -25 0 -25 -12 0 -10 9 -16 25 -16 14
0 25 -4 25 -10 0 -5 -11 -10 -25 -10 -16 0 -25 -6 -25 -15 0 -9 9 -15 25 -15
14 0 25 -6 25 -13 0 -9 -12 -13 -35 -13 l-35 1 0 63 0 62 35 0 c23 0 35 -5 35
-14z m242 -1 c-2 -5 -10 -9 -18 -9 -11 1 -14 -11 -14 -52 0 -30 -4 -54 -10
-54 -5 0 -10 25 -10 56 0 34 -4 53 -10 49 -14 -8 -32 4 -24 16 8 13 90 7 86
-6z m68 5 c0 -5 -4 -10 -10 -10 -5 0 -10 -21 -10 -46 0 -27 4 -43 10 -39 6 3
10 0 10 -8 0 -9 -11 -14 -30 -14 -16 0 -30 4 -30 9 0 4 5 8 11 8 8 0 10 18 7
55 -4 52 -3 55 19 55 13 0 23 -4 23 -10z m41 -17 c5 -16 12 -35 15 -43 4 -10
12 0 22 28 9 23 22 42 29 42 17 0 18 3 -16 -71 l-29 -64 -26 59 c-29 64 -31
76 -16 76 6 0 15 -12 21 -27z m179 7 c39 -39 19 -100 -32 -100 -61 0 -89 59
-48 100 11 11 29 20 40 20 11 0 29 -9 40 -20z m111 10 c10 -6 19 -15 19 -20 0
-14 -28 -12 -32 2 -5 13 -38 4 -38 -10 0 -4 15 -12 33 -17 43 -13 46 -55 5
-66 -29 -8 -73 15 -62 33 4 6 10 6 17 -1 6 -6 22 -11 35 -11 33 0 23 24 -14
30 -32 6 -43 32 -24 55 15 18 34 19 61 5z m-391 -70 c0 -5 -4 -10 -10 -10 -5
0 -10 5 -10 10 0 6 5 10 10 10 6 0 10 -4 10 -10z"/>
<path d="M1520 160 c0 -33 3 -40 20 -40 10 0 24 9 30 20 8 15 6 24 -10 40 -30
30 -40 25 -40 -20z"/>
<path d="M2156 184 c-29 -29 -12 -64 31 -64 31 0 44 47 18 67 -24 17 -30 16
-49 -3z"/>
<path d="M1786 165 c-9 -23 -8 -25 9 -25 17 0 19 9 6 28 -7 11 -10 10 -15 -3z"/>
</g>
</svg>
