<svg xmlns="http://www.w3.org/2000/svg" viewBox="0 0 480 89.68"><defs><style>.cls-1{fill:#fff;}.cls-1,.cls-2{fill-rule:evenodd;}.cls-2{fill:#06f;}</style></defs><g id="Camada_2" data-name="Camada 2"><g id="_02" data-name="02"><path class="cls-1" d="M153.9,11.91v65.9h13.28V25.16h18.4a9.33,9.33,0,1,1,0,18.66h-18.4L178,57.07l17.44,20.74h17.31L194,55.45a22.58,22.58,0,0,0-8.39-43.54Zm104.94,0H243.89l-25.48,65.9h14.2l5-13.06,5.13-13.26,8.57-22.17,8.56,22.17H249.41L244.29,64.7h20.76l5.05,13.06h14.22l-25.48-65.9ZM290,25.16h34.46L290,67.21v10.6h54V64.56H309.52l32.28-39.4V11.91H290V25.16Zm63.49,0h34.45L353.44,67.21v10.6h54V64.56H373l32.29-39.4V11.91H353.44V25.16ZM414.1,44.85A33,33,0,1,0,447,11.91,32.94,32.94,0,0,0,414.1,44.85ZM447,25.16a19.7,19.7,0,1,1-19.71,19.69A19.71,19.71,0,0,1,447,25.16Z"/><path class="cls-2" d="M42.78,68.9a44.37,44.37,0,0,0,37.5,20.78h0a44.44,44.44,0,0,0,44.31-44.32v-1A44.44,44.44,0,0,0,80.28,0h0A44.42,44.42,0,0,0,42.44,21.31l8,8c29.48,0,30.65,0,46.06,15.41C81.35,60,80.59,61.19,50.48,61.19Z"/><polygon class="cls-2" points="35.24 36.19 0 44.84 35.24 53.48 44.46 44.84 35.24 36.19"/></g></g></svg>