<svg xmlns="http://www.w3.org/2000/svg" viewBox="0 0 401.75 401.75"><defs><style>.cls-1{fill:#06f;}.cls-2{fill:#fefefe;fill-rule:evenodd;}</style></defs><g id="Camada_2" data-name="Camada 2"><g id="_09" data-name="09"><circle class="cls-1" cx="200.88" cy="200.88" r="200.88" transform="translate(-83.21 200.88) rotate(-45)"/><path class="cls-2" d="M143.53,237.84a68.18,68.18,0,0,0,57.61,31.92h0a68.29,68.29,0,0,0,68.08-68.08v-1.61A68.29,68.29,0,0,0,201.14,132h0A68.21,68.21,0,0,0,143,164.73l12.35,12.36c45.29,0,47.08,0,70.75,23.67C202.79,224.09,201.62,226,155.37,226l-11.84,11.85ZM132,187.6l14.15,13.28L132,214.16,77.82,200.88Z"/></g></g></svg>