<svg width="25" height="17" viewBox="0 0 25 17" fill="none" xmlns="http://www.w3.org/2000/svg">
<path fill-rule="evenodd" clip-rule="evenodd" d="M0.875 1.83333C0.875 1.09695 1.47195 0.5 2.20833 0.5H23.5417C24.278 0.5 24.875 1.09695 24.875 1.83333C24.875 2.56971 24.278 3.16667 23.5417 3.16667H2.20833C1.47195 3.16667 0.875 2.56971 0.875 1.83333ZM0.875 8.5C0.875 7.76362 1.47195 7.16667 2.20833 7.16667H23.5417C24.278 7.16667 24.875 7.76362 24.875 8.5C24.875 9.23638 24.278 9.83333 23.5417 9.83333H2.20833C1.47195 9.83333 0.875 9.23638 0.875 8.5ZM0.875 15.1667C0.875 14.4303 1.47195 13.8333 2.20833 13.8333H23.5417C24.278 13.8333 24.875 14.4303 24.875 15.1667C24.875 15.903 24.278 16.5 23.5417 16.5H2.20833C1.47195 16.5 0.875 15.903 0.875 15.1667Z" fill="white"/>
</svg>
