<svg width="9" height="12" viewBox="0 0 9 12" fill="none" xmlns="http://www.w3.org/2000/svg">
<path d="M0.19974 8.00684L3.37392 11.71C3.67212 12.058 4.1959 12.0982 4.54381 11.8C4.57606 11.7724 4.60615 11.7423 4.6338 11.71L7.80798 8.00684C8.10618 7.65893 8.06589 7.13515 7.71798 6.83695C7.56761 6.70806 7.37609 6.63721 7.17803 6.63721L0.829681 6.63721C0.371461 6.63721 0 7.00867 0 7.46689C0 7.66494 0.0708483 7.85646 0.19974 8.00684Z" fill="#D0C9D6"/>
<path d="M0.19974 3.99316L3.37392 0.289956C3.67212 -0.057951 4.1959 -0.0982418 4.54381 0.199964C4.57606 0.227613 4.60615 0.257699 4.6338 0.289956L7.80798 3.99316C8.10618 4.34107 8.06589 4.86485 7.71798 5.16305C7.56761 5.29194 7.37609 5.36279 7.17803 5.36279L0.829681 5.36279C0.371461 5.36279 0 4.99133 0 4.53311C0 4.33506 0.0708483 4.14354 0.19974 3.99316Z" fill="#D0C9D6"/>
</svg>
